<svg width="28" height="28" viewBox="0 0 28 28" fill="none" xmlns="http://www.w3.org/2000/svg">
<path d="M19.8333 26.5417H8.16667C3.02167 26.5417 1.45833 24.9783 1.45833 19.8333V8.16667C1.45833 3.02167 3.02167 1.45833 8.16667 1.45833H9.91667C11.9583 1.45833 12.6 2.12333 13.4167 3.20833L15.1667 5.54167C15.5517 6.055 15.61 6.125 16.3333 6.125H19.8333C24.9783 6.125 26.5417 7.68833 26.5417 12.8333V19.8333C26.5417 24.9783 24.9783 26.5417 19.8333 26.5417ZM8.16667 3.20833C3.99 3.20833 3.20833 4.00167 3.20833 8.16667V19.8333C3.20833 23.9983 3.99 24.7917 8.16667 24.7917H19.8333C24.01 24.7917 24.7917 23.9983 24.7917 19.8333V12.8333C24.7917 8.66833 24.01 7.875 19.8333 7.875H16.3333C14.84 7.875 14.35 7.36167 13.7667 6.59167L12.0167 4.25833C11.41 3.45333 11.2233 3.20833 9.91667 3.20833H8.16667V3.20833Z" fill="#C4CBDA"/>
<path d="M23.3333 8.31833C22.855 8.31833 22.4583 7.92167 22.4583 7.44333V5.83333C22.4583 3.99 21.6767 3.20833 19.8333 3.20833H9.33333C8.855 3.20833 8.45833 2.81167 8.45833 2.33333C8.45833 1.855 8.855 1.45833 9.33333 1.45833H19.8333C22.6567 1.45833 24.2083 3.01 24.2083 5.83333V7.44333C24.2083 7.92167 23.8117 8.31833 23.3333 8.31833Z" fill="#C4CBDA"/>
</svg>
